PathFileType	4	(X/Y/Z)	/Users/itak/Documents/Research/Walk-IL/dataset/trc/00022_00004.trc
DataRate	CameraRate	NumFrames	NumMarkers	Units	OrigDataRate	OrigDataStartFrame	OrigNumFrames
100.000000	100.000000	4	53	mm	100.000000	423	846
Frame#	Time	RPSI			LPSI			L3			STRN			T10			C7			CLAV			RBAK			LBAK			LSHO			LUPA			LAEL			LAOL			LWTS			LWPS			LFRA			LIFD			LHPS			LHTS			RSHO			RUPA			RAEL			RAOL			RWTS			RWPS			RFRA			RIFD			RHTS			RHPS			RBHD			LFHD			RFHD			LBHD			LHIP			RHIP			RASI			LASI			LKNE			LTHI			LANK			LTIP			LTOE			LMT1			LMT5			LHEE			RKNE			RTHI			RANK			RTIP			RTOE			RMT1			RMT5			RHEE			
		X1	Y1	Z1	X2	Y2	Z2	X3	Y3	Z3	X4	Y4	Z4	X5	Y5	Z5	X6	Y6	Z6	X7	Y7	Z7	X8	Y8	Z8	X9	Y9	Z9	X10	Y10	Z10	X11	Y11	Z11	X12	Y12	Z12	X13	Y13	Z13	X14	Y14	Z14	X15	Y15	Z15	X16	Y16	Z16	X17	Y17	Z17	X18	Y18	Z18	X19	Y19	Z19	X20	Y20	Z20	X21	Y21	Z21	X22	Y22	Z22	X23	Y23	Z23	X24	Y24	Z24	X25	Y25	Z25	X26	Y26	Z26	X27	Y27	Z27	X28	Y28	Z28	X29	Y29	Z29	X30	Y30	Z30	X31	Y31	Z31	X32	Y32	Z32	X33	Y33	Z33	X34	Y34	Z34	X35	Y35	Z35	X36	Y36	Z36	X37	Y37	Z37	X38	Y38	Z38	X39	Y39	Z39	X40	Y40	Z40	X41	Y41	Z41	X42	Y42	Z42	X43	Y43	Z43	X44	Y44	Z44	X45	Y45	Z45	X46	Y46	Z46	X47	Y47	Z47	X48	Y48	Z48	X49	Y49	Z49	X50	Y50	Z50	X51	Y51	Z51	X52	Y52	Z52	X53	Y53	Z53	

424	4.23	664.979248046875	1058.827026367188	-686.3690795898438	677.3682250976562	1041.01708984375	-523.8688354492188	680.0716552734375	1111.5107421875	-594.3349609375	456.8679504394531	1300.059326171875	-584.8759155273438	707.3318481445312	1256.010498046875	-589.7940063476562	654.12841796875	1522.54541015625	-571.9682006835938	499.6603088378906	1424.8955078125	-577.9545288085938	710.1398315429688	1389.48583984375	-657.0779418945312	675.3619995117188	1478.44287109375	-477.8412475585938	575.564697265625	1479.187744140625	-402.362548828125	619.7164306640625	1357.6142578125	-329.3605041503906	647.8501586914062	1144.22705078125	-306.3070373535156	697.0552978515625	1140.796752929688	-400.3816223144531	579.0595703125	884.4553833007812	-357.0297241210938	662.8140869140625	876.2555541992188	-325.07373046875	648.3182983398438	1027.324340820312	-300.1699829101562	574.2103271484375	694.7499389648438	-379.931884765625	640.3547973632812	783.5879516601562	-325.1810607910156	571.99072265625	785.613037109375	-345.3579406738281	578.2955322265625	1510.861694335938	-741.9548950195312	594.3375854492188	1448.272338867188	-818.4369506835938	645.9008178710938	1189.70703125	-870.7479858398438	647.1098022460938	1151.189575195312	-777.08984375	530.164794921875	919.4835815429688	-874.4793090820312	598.25	914.4152221679688	-937.1329956054688	637.4331665039062	1115.192626953125	-895.3071899414062	512.7947387695312	731.5940551757812	-883.8607177734375	496.8168640136719	812.6514282226562	-899.7725830078125	558.3091430664062	812.494873046875	-946.9808349609375	512.7691040039062	1705.216674804688	-637.4449462890625	417.8960571289062	1663.406372070312	-454.4023742675781	370.0577392578125	1670.993774414062	-541.259033203125	585.6671142578125	1699.2666015625	-513.380859375	584.695068359375	927.6033325195312	-411.9013977050781	537.6465454101562	955.7665405273438	-785.0663452148438	444.0482482910156	985.4200439453125	-700.5601806640625	468.8902282714844	984.6992797851562	-466.1537475585938	462.5397644042969	481.0746154785156	-473.9443664550781	510.0819702148438	623.3405151367188	-437.0808410644531	890.8961791992188	204.9031677246094	-439.4420471191406	683.4276733398438	344.2869873046875	-438.8934936523438	783.244384765625	36.33249664306641	-537.126708984375	810.9326171875	88.56913757324219	-545.3218383789062	815.9285888671875	105.1127548217773	-440.0674438476562	933.483154296875	268.6485595703125	-479.8827514648438	437.9315185546875	531.0469360351562	-761.832763671875	485.0775451660156	798.2081909179688	-790.528564453125	528.6630859375	36.00413513183594	-788.5735473632812	447.6093139648438	402.3651733398438	-773.378173828125	303.6051635742188	40.88804626464844	-722.5137329101562	369.3694763183594	46.24187469482422	-700.229736328125	378.7316284179688	36.66656494140625	-797.3406982421875	584.3935546875	27.07822227478027	-746.8009033203125	
425	4.24	657.6062622070312	1059.954833984375	-688.6339721679688	671.447998046875	1042.45458984375	-526.2391357421875	673.4401245117188	1112.77392578125	-596.94677734375	450.0865478515625	1301.306762695312	-585.0448608398438	700.400634765625	1257.4599609375	-593.2593994140625	647.2710571289062	1523.930419921875	-574.7792358398438	493.0799255371094	1426.234130859375	-578.660888671875	702.2789306640625	1390.97412109375	-660.671630859375	669.84521484375	1479.884033203125	-480.9858093261719	571.1005859375	1480.499389648438	-404.0918579101562	616.5697021484375	1358.9423828125	-331.8320007324219	645.2529907226562	1145.493896484375	-309.6298522949219	693.1514892578125	1142.303588867188	-404.4507446289062	575.96337890625	885.7365112304688	-359.9996032714844	660.2141723632812	877.579345703125	-329.1632385253906	645.8958129882812	1028.581665039062	-303.774658203125	571.02734375	696.1353759765625	-383.1425170898438	637.8306274414062	784.855224609375	-329.1737976074219	569.183837890625	786.9402465820312	-348.3420104980469	569.1820068359375	1512.322998046875	-743.6963500976562	584.115234375	1449.774291992188	-820.4459838867188	634.7495727539062	1191.09912109375	-873.5905151367188	637.3533325195312	1152.58056640625	-780.0067749023438	517.94775390625	921.2960815429688	-875.434326171875	585.1452026367188	915.843994140625	-939.0906372070312	625.7620849609375	1116.53271484375	-898.0537109375	499.88134765625	733.4560546875	-884.39208984375	484.3902587890625	814.4518432617188	-900.2037963867188	544.6838989257812	814.1361694335938	-948.2977905273438	505.1819458007812	1706.446166992188	-638.5903930664062	412.3509521484375	1664.834594726562	-454.4543762207031	364.1813049316406	1672.3857421875	-540.6602172851562	579.4970092773438	1700.705078125	-515.3704223632812	579.37548828125	929.300048828125	-412.999755859375	529.8339233398438	956.344482421875	-785.9937133789062	436.9964904785156	986.2247314453125	-700.806884765625	463.5232849121094	986.4033203125	-466.6162109375	449.2283630371094	484.2239379882812	-474.6268615722656	499.9891662597656	625.5712890625	-437.8788146972656	875.4635620117188	204.4081726074219	-448.6749877929688	669.64892578125	345.8272705078125	-444.1785888671875	760.5983276367188	37.39057540893555	-541.065673828125	788.6214599609375	88.70624542236328	-551.1292114257812	797.0029296875	107.0243072509766	-446.1278991699219	918.6207885742188	266.2145080566406	-491.5025329589844	435.3880310058594	530.4766235351562	-762.5760498046875	478.8389587402344	798.3357543945312	-791.292236328125	528.6084594726562	36.08476257324219	-788.5208740234375	446.0667724609375	402.0103149414062	-774.0067749023438	303.5327758789062	40.79584503173828	-722.5040893554688	369.3268737792969	46.16275405883789	-700.2315673828125	378.6921997070312	36.62854385375977	-797.3710327148438	584.4793701171875	27.56821632385254	-746.822998046875	
426	4.25	650.283935546875	1061.061889648438	-690.768310546875	665.58056640625	1043.864990234375	-528.4977416992188	666.8502197265625	1113.981567382812	-599.470947265625	443.3592834472656	1302.497436523438	-585.083740234375	693.4403076171875	1258.811279296875	-596.640380859375	640.4354248046875	1525.223266601562	-577.44140625	486.3804931640625	1427.521484375	-579.2362670898438	694.4189453125	1392.373657226562	-664.1160888671875	664.363525390625	1481.246215820312	-484.0306701660156	566.7111206054688	1481.72705078125	-405.7239074707031	613.5228271484375	1360.180053710938	-334.2184753417969	642.726806640625	1146.67919921875	-312.8842468261719	689.2591552734375	1143.716674804688	-408.4184875488281	572.932373046875	886.9155883789062	-362.8251342773438	657.6849365234375	878.8204956054688	-333.1424865722656	643.5687255859375	1029.762451171875	-307.2899169921875	567.994384765625	697.4075317382812	-386.1608581542969	635.3707885742188	786.0073852539062	-333.0418701171875	566.4249877929688	788.1734619140625	-351.1652221679688	560.1179809570312	1513.715576171875	-745.2732543945312	573.9415893554688	1451.21142578125	-822.2763061523438	623.6524658203125	1192.435180664062	-876.29833984375	627.6983642578125	1153.917236328125	-782.8233642578125	506.0982666015625	923.0636596679688	-876.1377563476562	572.0014038085938	917.2529907226562	-940.8695068359375	614.1123046875	1117.803833007812	-900.6419067382812	486.8887023925781	735.3433837890625	-884.6494750976562	471.874755859375	816.2964477539062	-900.3544311523438	530.9720458984375	815.770263671875	-949.3795776367188	497.6402893066406	1707.6279296875	-639.5546264648438	406.865966796875	1666.163940429688	-454.3672790527344	358.2704162597656	1673.681030273438	-539.9309692382812	573.3687744140625	1702.07421875	-517.1931762695312	574.0770874023438	930.9794311523438	-413.9723510742188	522.1150512695312	956.8594970703125	-786.8201293945312	429.92236328125	986.9852294921875	-700.9692993164062	458.2387084960938	988.0376586914062	-467.0326232910156	436.2269592285156	487.4906311035156	-475.0309753417969	490.0475769042969	627.8582153320312	-438.3811645507812	859.08740234375	202.3180999755859	-457.6320190429688	655.5667724609375	346.6321411132812	-449.19140625	736.9796142578125	38.26848983764648	-546.06982421875	765.7249145507812	88.47599792480469	-557.4603881835938	777.2117919921875	107.5596313476562	-452.8029174804688	902.9531860351562	262.3690795898438	-502.2855834960938	432.9718627929688	529.913818359375	-763.2491455078125	472.7700805664062	798.4031372070312	-791.97705078125	528.5578002929688	36.1675910949707	-788.4562377929688	444.6312255859375	401.6866149902344	-774.57177734375	303.4567260742188	40.70586395263672	-722.4984741210938	369.2800598144531	46.08172607421875	-700.2352294921875	378.6510925292969	36.59475326538086	-797.3994140625	584.5690307617188	28.06041526794434	-746.8330688476562	
427	4.26	643.0034790039062	1062.143920898438	-692.7743530273438	659.7632446289062	1045.239868164062	-530.6481323242188	660.306640625	1115.12939453125	-601.9133911132812	436.6622619628906	1303.612060546875	-584.999267578125	686.4454956054688	1260.053466796875	-599.932861328125	633.6195678710938	1526.414428710938	-579.962890625	479.6288452148438	1428.726440429688	-579.6859741210938	686.5488891601562	1393.66650390625	-667.4082641601562	658.9047241210938	1482.512084960938	-486.973388671875	562.3759155273438	1482.860473632812	-407.2621459960938	610.553466796875	1361.3193359375	-336.5240783691406	640.2642822265625	1147.776123046875	-316.0638732910156	685.3673706054688	1145.035278320312	-412.277587890625	569.98486328125	887.9913330078125	-365.4895324707031	655.2142333984375	879.970703125	-337.0074768066406	641.3179321289062	1030.857666015625	-310.7124938964844	565.0843505859375	698.5557861328125	-389.0002136230469	632.9611206054688	787.0302734375	-336.7865905761719	563.7061157226562	789.2938232421875	-353.8326416015625	551.0986938476562	1515.020874023438	-746.6911010742188	563.8184204101562	1452.56298828125	-823.9325561523438	612.6121826171875	1193.695068359375	-878.87158203125	618.1295776367188	1155.171630859375	-785.5357666015625	494.5357666015625	924.7721557617188	-876.6112670898438	558.8361206054688	918.6235961914062	-942.4664306640625	602.4866333007812	1118.994506835938	-903.0697631835938	473.804443359375	737.2324829101562	-884.6522827148438	459.2449340820312	818.16455078125	-900.2508544921875	517.1927490234375	817.3807373046875	-950.2344360351562	490.1433410644531	1708.750122070312	-640.341796875	401.44873046875	1667.394897460938	-454.1365661621094	352.29150390625	1674.879516601562	-539.0714721679688	567.2886352539062	1703.352294921875	-518.8562622070312	568.8155517578125	932.6163330078125	-414.8306884765625	514.525634765625	957.3042602539062	-787.5393676757812	422.8423767089844	987.6710205078125	-701.0588989257812	453.0334167480469	989.5872802734375	-467.4015502929688	423.5240173339844	490.8471984863281	-475.1570434570312	480.2380065917969	630.18505859375	-438.60107421875	841.7496337890625	198.7218170166016	-466.3001708984375	641.1752319335938	346.7003173828125	-453.8745727539062	712.2633056640625	39.01142883300781	-552.0384521484375	742.31005859375	87.88703918457031	-564.2567749023438	756.5628662109375	106.8012313842773	-459.9620971679688	886.499755859375	257.222412109375	-512.2152709960938	430.6665954589844	529.3587036132812	-763.8540649414062	466.8637390136719	798.4110717773438	-792.5750732421875	528.5107421875	36.25067901611328	-788.3807983398438	443.2795715332031	401.3884582519531	-775.0773315429688	303.3799133300781	40.62170791625977	-722.4959716796875	369.2284545898438	46.00170516967773	-700.2413330078125	378.6100769042969	36.56547164916992	-797.423583984375	584.6624145507812	28.55289649963379	-746.8324584960938	
